<svg style="object-fit:cover" id="my-svg" version="1" baseProfile="full" width="100%" height="100%" viewBox="0 0 1536 735" xmlns="http://www.w3.org/2000/svg"><rect width="1536" height="735" fill="#000"/><defs><linearGradient id="linear-gradient" x1="0" x2="1" y1="0" y2="1"><stop offset="0%" stop-color="#c8625b50"/><stop offset="100%" stop-color="#1c39bb50"/></linearGradient></defs><path transform="scale(-1, -1)" d="M 0,735 V 0,147 C 67.34922680412372,169.2652798232695 134.69845360824743,191.53055964653905 193,181 C 251.30154639175257,170.46944035346095 300.555412371134,127.14304123711342 361,122 C 421.444587628866,116.85695876288658 493.0798969072165,149.89727540500735 567,148 C 640.9201030927835,146.10272459499265 717.125,109.26785714285714 776,114 C 834.875,118.73214285714286 876.4201030927835,165.03129602356404 939,166 C 1001.5798969072165,166.96870397643596 1085.194587628866,122.60695876288659 1153,127 C 1220.805412371134,131.3930412371134 1272.8015463917525,184.54086892488954 1334,196 C 1395.1984536082475,207.45913107511046 1465.5992268041236,177.22956553755523 1536,147 C 1536,147 1536,735 1536,735 Z" stroke="none" stroke-width="0" fill="url(#linear-gradient)" class="transition-all duration-300 ease-in-out delay-150" style="transform-origin: center center;"/><defs><linearGradient id="linear-gradient" x1="0" x2="1" y1="0" y2="1"><stop offset="0%" stop-color="#c8625b60"/><stop offset="100%" stop-color="#1c39bb60"/></linearGradient></defs><path transform="scale(-1, -1)" d="M 0,735 V 0,220 C 71.40500736377024,213.22312223858614 142.81001472754048,206.4462444771723 202,218 C 261.1899852724595,229.5537555228277 308.1649484536083,259.4381443298969 366,261 C 423.8350515463917,262.5618556701031 492.5301914580265,235.80117820324008 562,218 C 631.4698085419735,200.19882179675992 701.7142857142856,191.35714285714286 774,185 C 846.2857142857144,178.64285714285714 920.6126656848307,174.7702503681885 983,176 C 1045.3873343151693,177.2297496318115 1095.8350515463917,183.56185567010309 1153,187 C 1210.1649484536083,190.43814432989691 1274.0471281296025,190.98232695139913 1339,196 C 1403.9528718703975,201.01767304860087 1469.9764359351989,210.50883652430042 1536,220 C 1536,220 1536,735 1536,735 Z" stroke="none" stroke-width="0" fill="url(#linear-gradient)" class="transition-all duration-300 ease-in-out delay-150" style="transform-origin: center center;"/><defs><linearGradient id="linear-gradient" x1="0" x2="1" y1="0" y2="1"><stop offset="0%" stop-color="#c8625b70"/><stop offset="100%" stop-color="#1c39bb70"/></linearGradient></defs><path transform="scale(-1, -1)" d="M 0,735 V 0,330 C 53.88273195876289,354.9405375552283 107.76546391752578,379.88107511045655 178,377 C 248.23453608247422,374.11892488954345 334.8208762886598,343.4162371134021 401,341 C 467.1791237113402,338.5837628865979 512.9510309278351,364.4539764359352 573,363 C 633.0489690721649,361.5460235640648 707.3749999999999,332.76785714285717 781,327 C 854.6250000000001,321.23214285714283 927.5489690721649,338.4745949926362 981,337 C 1034.451030927835,335.5254050073638 1068.42912371134,315.3337628865979 1134,324 C 1199.57087628866,332.6662371134021 1296.7345360824743,370.19035346097206 1369,376 C 1441.2654639175257,381.80964653902794 1488.6327319587629,355.90482326951394 1536,330 C 1536,330 1536,735 1536,735 Z" stroke="none" stroke-width="0" fill="url(#linear-gradient)" class="transition-all duration-300 ease-in-out delay-150" style="transform-origin: center center;"/><defs><linearGradient id="linear-gradient" x1="0" x2="1" y1="0" y2="1"><stop offset="0%" stop-color="#c8625b80"/><stop offset="100%" stop-color="#1c39bb80"/></linearGradient></defs><path transform="scale(-1, -1)" d="M 0,735 V 0,496 C 76.41586892488957,499.79215758468337 152.83173784977913,503.58431516936673 213,519 C 273.16826215022087,534.4156848306333 317.0889175257731,561.4548969072165 375,547 C 432.9110824742269,532.5451030927835 504.8125920471282,476.59609720176735 575,447 C 645.1874079528718,417.40390279823265 713.6607142857142,414.1607142857143 783,444 C 852.3392857142858,473.8392857142857 922.5445508100147,536.7610456553756 987,537 C 1051.4554491899853,537.2389543446244 1110.161082474227,474.7951030927835 1165,474 C 1219.838917525773,473.2048969072165 1270.8111192930783,534.0585419734905 1332,548 C 1393.1888807069217,561.9414580265095 1464.5944403534609,528.9707290132548 1536,496 C 1536,496 1536,735 1536,735 Z" stroke="none" stroke-width="0" fill="url(#linear-gradient)" class="transition-all duration-300 ease-in-out delay-150" style="transform-origin: center center;"/><defs><linearGradient id="linear-gradient" x1="0" x2="1" y1="0" y2="1"><stop offset="0%" stop-color="#c8625b90"/><stop offset="100%" stop-color="#1c39bb90"/></linearGradient></defs><path transform="scale(-1, -1)" d="M 0,735 V 0,744 C 47.38972754050074,767.3114874815906 94.77945508100149,790.6229749631812 161,789 C 227.2205449189985,787.3770250368188 312.2719072164948,760.8195876288661 385,755 C 457.7280927835052,749.1804123711339 518.1329160530192,764.0986745213548 577,775 C 635.8670839469808,785.9013254786452 693.1964285714284,792.7857142857143 753,778 C 812.8035714285716,763.2142857142857 875.0813696612666,726.7584683357878 935,717 C 994.9186303387334,707.2415316642122 1052.4780927835052,724.180412371134 1128,727 C 1203.5219072164948,729.819587628866 1297.0062592047127,718.5198821796761 1368,719 C 1438.9937407952873,719.4801178203239 1487.4968703976438,731.7400589101619 1536,744 C 1536,744 1536,735 1536,735 Z" stroke="none" stroke-width="0" fill="url(#linear-gradient)" class="transition-all duration-300 ease-in-out delay-150" style="transform-origin: center center;"/><defs><linearGradient id="linear-gradient" x1="0" x2="1" y1="0" y2="1"><stop offset="0%" stop-color="#c8625bff"/><stop offset="100%" stop-color="#1c39bbff"/></linearGradient></defs><path transform="scale(-1, -1)" d="M 0,735 V 0,1116 C 60.83118556701031,1133.0662739322534 121.66237113402062,1150.1325478645067 181,1162 C 240.33762886597938,1173.8674521354933 298.18170103092785,1180.5360824742268 368,1162 C 437.81829896907215,1143.4639175257732 519.610824742268,1099.7231222385863 576,1103 C 632.389175257732,1106.2768777614137 663.375,1156.5714285714284 735,1153 C 806.625,1149.4285714285716 918.889175257732,1091.9911634756998 991,1078 C 1063.110824742268,1064.0088365243002 1095.0682989690722,1093.463917525773 1152,1119 C 1208.9317010309278,1144.536082474227 1290.8376288659795,1166.1531664212077 1359,1165 C 1427.1623711340205,1163.8468335787923 1481.5811855670104,1139.923416789396 1536,1116 C 1536,1116 1536,735 1536,735 Z" stroke="none" stroke-width="0" fill="url(#linear-gradient)" class="transition-all duration-300 ease-in-out delay-150" style="transform-origin: center center;"/></svg>